<?xml version="1.0" encoding="utf-8"?>
<!-- Generator: Adobe Illustrator 16.0.0, SVG Export Plug-In . SVG Version: 6.00 Build 0)  -->
<!DOCTYPE svg PUBLIC "-//W3C//DTD SVG 1.1//EN" "http://www.w3.org/Graphics/SVG/1.1/DTD/svg11.dtd">
<svg version="1.1" id="レイヤー_2" xmlns="http://www.w3.org/2000/svg" xmlns:xlink="http://www.w3.org/1999/xlink" x="0px"
	 y="0px" width="354.332px" height="392.78px" viewBox="0 0 354.332 392.78" enable-background="new 0 0 354.332 392.78"
	 xml:space="preserve">
<g>
	<g>
		
			<line fill="none" stroke="#000000" stroke-width="28.3465" stroke-miterlimit="10" x1="120.473" y1="163.659" x2="7.087" y2="98.195"/>
		<polyline fill="none" stroke="#000000" stroke-width="28.3465" stroke-miterlimit="10" points="35.435,180.024 92.127,147.294 
			92.127,81.829 		"/>
	</g>
	<g>
		
			<line fill="none" stroke="#000000" stroke-width="28.3465" stroke-miterlimit="10" x1="347.245" y1="294.586" x2="233.859" y2="229.122"/>
		<polyline fill="none" stroke="#000000" stroke-width="28.3465" stroke-miterlimit="10" points="318.897,212.757 262.205,245.488 
			262.206,310.952 		"/>
	</g>
	<g>
		
			<line fill="none" stroke="#000000" stroke-width="28.3465" stroke-miterlimit="10" x1="120.474" y1="229.122" x2="7.087" y2="294.586"/>
		<polyline fill="none" stroke="#000000" stroke-width="28.3465" stroke-miterlimit="10" points="92.128,310.95 92.127,245.488 
			35.435,212.757 		"/>
	</g>
	<g>
		
			<line fill="none" stroke="#000000" stroke-width="28.3465" stroke-miterlimit="10" x1="347.245" y1="98.195" x2="233.86" y2="163.659"/>
		<polyline fill="none" stroke="#000000" stroke-width="28.3465" stroke-miterlimit="10" points="262.206,81.831 262.206,147.294 
			318.899,180.024 		"/>
	</g>
	<g>
		
			<line fill="none" stroke="#000000" stroke-width="28.3465" stroke-miterlimit="10" x1="177.166" y1="261.854" x2="177.167" y2="392.78"/>
		<polyline fill="none" stroke="#000000" stroke-width="28.3465" stroke-miterlimit="10" points="233.858,327.315 177.167,294.586 
			120.474,327.317 		"/>
	</g>
	<polyline fill="none" stroke="#000000" stroke-width="28.3465" stroke-miterlimit="10" points="120.476,65.466 177.167,98.196 
		233.86,65.464 	"/>
	<polyline fill="none" stroke="#000000" stroke-width="28.3465" stroke-miterlimit="10" points="177.167,196.392 233.86,163.659 
		233.859,229.122 177.167,261.854 120.474,229.122 120.473,163.659 177.167,130.927 177.167,0 	"/>
</g>
</svg>
